# xmcd
#
# Track frame offsets:
#  150
#  10295
#  21891
#  33690
#  45566
#  59321
#  69999
#  80649
#  91870
#  101258
#  111004
#  124006
#  135029
#  145473
#  155764
#  168762
#
# Disc length: 2390 seconds
#
# Revision: 0
# Processed by: cddbd v1.4PL0 Copyright (c) Steve Scherf et al.
# Submitted via: AltoMP3_Maker 3.0
#
DISCID=c8095410
DTITLE=Patsy Cline - Patsy Cline Time
DYEAR=1900
DGENRE=
TTITLE0=Three Cigarettes In An Ashtray
TTITLE1=In Care Of The Blues
TTITLE2=Today , Tomorrow and Forever
TTITLE3=Walkin' After Midnight
TTITLE4=A Church, A Courtroom and Then Goodbye
TTITLE5=Stop , Look And Listen
TTITLE6=Gotta Lot Of Rhythm In My Soul
TTITLE7=Dear God
TTITLE8=Come On In
TTITLE9=I'm Movin' Along
TTITLE10=Life's Railway To Heaven
TTITLE11=Stop The World
TTITLE12=Lovesick Blues
TTITLE13=Pick Me Up On Your Way Down
TTITLE14=Through The Eyes Of A Child
TTITLE15=Honky Tonk Merry Go Round
EXTD=
EXTT0=
EXTT1=
EXTT2=
EXTT3=
EXTT4=
EXTT5=
EXTT6=
EXTT7=
EXTT8=
EXTT9=
EXTT10=
EXTT11=
EXTT12=
EXTT13=
EXTT14=
EXTT15=
PLAYORDER=
